<svg xmlns="http://www.w3.org/2000/svg" width="1653" height="242" viewBox="0 0 1653 242" version="1.1">
	<path d="M 75.367 7.750 C 75.840 8.537, 75.540 9, 74.559 9 C 73.667 9, 73 9.855, 73 11 C 73 12.100, 72.572 13, 72.050 13 C 71.527 13, 70.794 15.700, 70.420 19 C 70.047 22.300, 69.350 25, 68.871 25 C 68.392 25, 67.993 26.462, 67.985 28.250 C 67.973 30.716, 67.736 31.138, 67 30 C 66.290 28.901, 66.027 29.638, 66.015 32.750 C 66.007 35.087, 65.550 37, 65 37 C 64.450 37, 64 38.125, 64 39.500 C 64 40.875, 63.550 42, 63 42 C 62.450 42, 62 43.602, 62 45.559 C 62 47.677, 61.595 48.868, 61 48.500 C 60.405 48.132, 60 49.323, 60 51.441 C 60 53.398, 59.594 55, 59.098 55 C 58.602 55, 57.883 57.700, 57.500 61 C 57.117 64.300, 56.398 67, 55.902 67 C 55.406 67, 55 68.098, 55 69.441 C 55 70.784, 54.550 72.160, 54 72.500 C 53.450 72.840, 53 74.666, 53 76.559 C 53 78.452, 52.550 80, 52 80 C 51.450 80, 51 81.125, 51 82.500 C 51 83.875, 50.550 85, 50 85 C 49.450 85, 49 86.350, 49 88 C 49 89.650, 48.550 91, 48 91 C 47.450 91, 47 92.098, 47 93.441 C 47 94.784, 46.550 96.160, 46 96.500 C 45.450 96.840, 45 98.666, 45 100.559 C 45 102.452, 44.572 104, 44.050 104 C 43.527 104, 42.795 106.691, 42.423 109.981 C 42.051 113.270, 41.447 115.776, 41.080 115.550 C 40.714 115.323, 40.307 116.570, 40.176 118.319 C 40.044 120.069, 39.501 121.650, 38.968 121.833 C 38.436 122.017, 38 123.479, 38 125.083 C 38 126.688, 37.550 128, 37 128 C 36.450 128, 36 129.350, 36 131 C 36 132.650, 35.550 134, 35 134 C 34.450 134, 34 135.125, 34 136.500 C 34 137.875, 33.642 139, 33.204 139 C 32.767 139, 32.296 140.674, 32.158 142.719 C 32.021 144.765, 31.508 146.686, 31.019 146.988 C 30.530 147.290, 29.818 149.892, 29.436 152.769 C 29.055 155.646, 28.350 158, 27.871 158 C 27.392 158, 27 159.125, 27 160.500 C 27 161.875, 26.438 163.007, 25.750 163.015 C 24.917 163.026, 25 163.354, 26 164 C 27 164.646, 27.083 164.974, 26.250 164.985 C 25.531 164.993, 25 166.275, 25 168 C 25 169.650, 24.550 171, 24 171 C 23.450 171, 23 172.125, 23 173.500 C 23 174.875, 22.550 176, 22 176 C 21.450 176, 21 177.350, 21 179 C 21 180.650, 20.646 182, 20.213 182 C 19.780 182, 19.352 182.972, 19.263 184.160 C 19.173 185.348, 18.589 186.636, 17.965 187.022 C 17.340 187.408, 16.911 188.016, 17.011 188.373 C 17.504 190.126, 15.687 201, 14.902 201 C 14.406 201, 14 202.350, 14 204 C 14 205.650, 13.550 207, 13 207 C 12.450 207, 12 208.575, 12 210.500 C 12 212.425, 11.550 214, 11 214 C 10.450 214, 10 215.125, 10 216.500 C 10 217.875, 9.550 219, 9 219 C 8.450 219, 8 220.350, 8 222 C 8 223.650, 7.550 225, 7 225 C 6.450 225, 6 226.125, 6 227.500 C 6 228.875, 5.550 230, 5 230 C 4.450 230, 4 230.900, 4 232 C 4 233.917, 4.667 234, 20 234 C 35.333 234, 36 233.917, 36 232 C 36 230.900, 36.450 230, 37 230 C 37.550 230, 38 228.677, 38 227.059 C 38 225.441, 38.450 223.840, 39 223.500 C 39.550 223.160, 40 221.559, 40 219.941 C 40 218.323, 40.414 217, 40.920 217 C 41.427 217, 42.154 214.075, 42.537 210.500 C 42.920 206.925, 43.631 204, 44.116 204 C 44.602 204, 45 202.425, 45 200.500 C 45 198.575, 45.450 197, 46 197 C 46.550 197, 47 195.425, 47 193.500 C 47 191.575, 47.450 190, 48 190 C 48.550 190, 49 188.650, 49 187 C 49 185.350, 49.450 184, 50 184 C 50.550 184, 51 182.896, 51 181.547 C 51 180.198, 51.522 177.948, 52.161 176.547 L 53.321 174 91.732 174 C 133.780 174, 133 173.889, 133 179.870 C 133 181.526, 133.450 183.160, 134 183.500 C 134.550 183.840, 135 185.216, 135 186.559 C 135 187.902, 135.398 189, 135.884 189 C 136.369 189, 137.080 191.925, 137.463 195.500 C 137.846 199.075, 138.573 202, 139.080 202 C 139.586 202, 140 203.575, 140 205.500 C 140 207.425, 140.450 209, 141 209 C 141.550 209, 142 210.350, 142 212 C 142 213.650, 142.450 215, 143 215 C 143.550 215, 144 216.575, 144 218.500 C 144 220.425, 144.450 222, 145 222 C 145.550 222, 146 223.350, 146 225 C 146 226.650, 146.450 228, 147 228 C 147.550 228, 148 229.350, 148 231 L 148 234 163.500 234 L 179 234 179 231.500 C 179 230.125, 178.594 229, 178.098 229 C 177.602 229, 176.883 226.300, 176.500 223 C 176.117 219.700, 175.398 217, 174.902 217 C 174.406 217, 174 215.398, 174 213.441 C 174 211.323, 173.595 210.132, 173 210.500 C 172.405 210.868, 172 209.677, 172 207.559 C 172 205.602, 171.550 204, 171 204 C 170.450 204, 170 202.875, 170 201.500 C 170 200.125, 169.550 199, 169 199 C 168.450 199, 168 197.650, 168 196 C 168 194.350, 167.550 193, 167 193 C 166.450 193, 166 191.677, 166 190.059 C 166 188.441, 165.594 186.867, 165.098 186.561 C 164.603 186.254, 163.883 183.303, 163.500 180.002 C 163.117 176.701, 162.398 174, 161.902 174 C 161.406 174, 161 172.875, 161 171.500 C 161 170.125, 160.550 169, 160 169 C 159.450 169, 159 167.425, 159 165.500 C 159 163.575, 158.550 162, 158 162 C 157.450 162, 157 160.650, 157 159 C 157 157.350, 156.550 156, 156 156 C 155.450 156, 155 154.398, 155 152.441 C 155 150.323, 154.595 149.132, 154 149.500 C 153.417 149.861, 153 148.844, 153 147.059 C 153 145.377, 152.594 144, 152.098 144 C 151.602 144, 150.883 141.300, 150.500 138 C 150.117 134.700, 149.398 132, 148.902 132 C 148.406 132, 148 130.650, 148 129 C 148 127.350, 147.550 126, 147 126 C 146.450 126, 146 124.677, 146 123.059 C 146 121.441, 145.550 119.840, 145 119.500 C 144.450 119.160, 144 117.559, 144 115.941 C 144 114.323, 143.550 113, 143 113 C 142.450 113, 142 111.650, 142 110 C 142 108.350, 141.550 107, 141 107 C 140.450 107, 140 105.875, 140 104.500 C 140 103.125, 139.602 102, 139.116 102 C 138.631 102, 137.920 99.075, 137.537 95.500 C 137.154 91.925, 136.427 89, 135.920 89 C 135.414 89, 135 87.650, 135 86 C 135 84.350, 134.550 83, 134 83 C 133.450 83, 133 81.912, 133 80.583 C 133 79.254, 132.570 78.017, 132.044 77.833 C 131.518 77.650, 130.976 75.813, 130.839 73.750 C 130.703 71.688, 130.233 70, 129.796 70 C 129.358 70, 129 68.875, 129 67.500 C 129 66.125, 128.550 65, 128 65 C 127.450 65, 127 63.650, 127 62 C 127 60.350, 126.586 59, 126.080 59 C 125.573 59, 124.847 56.080, 124.464 52.512 C 124.082 48.944, 123.371 46.270, 122.885 46.571 C 122.398 46.872, 122 45.516, 122 43.559 C 122 41.602, 121.550 40, 121 40 C 120.450 40, 120 38.913, 120 37.583 C 120 36.254, 119.570 35.017, 119.044 34.833 C 118.518 34.650, 117.976 32.813, 117.839 30.750 C 117.703 28.687, 117.233 27, 116.796 27 C 116.358 27, 116 25.875, 116 24.500 C 116 23.125, 115.550 22, 115 22 C 114.450 22, 114 20.650, 114 19 C 114 17.350, 113.550 16, 113 16 C 112.450 16, 112 14.875, 112 13.500 C 112 12.125, 111.602 11, 111.117 11 C 110.631 11, 110.014 10.161, 109.745 9.135 C 109.301 7.435, 107.990 7.253, 95.036 7.089 C 85.416 6.967, 80.359 7.287, 79.407 8.077 C 78.324 8.976, 77.610 8.929, 76.308 7.872 C 75.158 6.940, 74.857 6.901, 75.367 7.750 M 216.750 8.392 C 215.260 9.523, 215 11.447, 215 21.342 L 215 32.964 238.750 33.232 L 262.500 33.500 262.755 120.750 L 263.011 208 239.005 208 L 215 208 215 221 L 215 234 278 234 L 341 234 341 221 L 341 208 317 208 L 293 208 293 121.500 C 293 61.286, 293.322 35, 294.059 35 C 294.641 35, 294.840 34.550, 294.500 34 C 294.095 33.344, 301.990 33, 317.441 33 L 341 33 341 21.429 C 341 12.988, 340.631 9.488, 339.636 8.493 C 338.580 7.437, 337.982 7.397, 336.989 8.314 C 335.994 9.234, 335.865 9.220, 336.412 8.250 C 336.973 7.256, 325.404 7, 280 7 C 242.176 7, 223.091 7.338, 223.500 8 C 223.840 8.550, 223.443 9, 222.618 9 C 221.793 9, 220.840 8.550, 220.500 8 C 219.692 6.692, 218.877 6.777, 216.750 8.392 M 565 121.500 L 565 234 578.500 234 L 592 234 592 136.500 C 592 72.167, 592.340 39, 593 39 C 593.550 39, 594 39.675, 594 40.500 C 594 41.325, 594.450 42, 595 42 C 595.550 42, 596 43.350, 596 45 C 596 46.650, 596.450 48, 597 48 C 597.550 48, 598 49.350, 598 51 C 598 52.650, 598.450 54, 599 54 C 599.550 54, 600 55.125, 600 56.500 C 600 57.875, 600.450 59, 601 59 C 601.550 59, 602 60.350, 602 62 C 602 63.650, 602.450 65, 603 65 C 603.550 65, 604 66.125, 604 67.500 C 604 68.875, 604.398 70, 604.885 70 C 605.371 70, 606.079 72.475, 606.457 75.500 C 606.835 78.525, 607.562 81, 608.072 81 C 608.582 81, 609 82.350, 609 84 C 609 85.650, 609.450 87, 610 87 C 610.550 87, 611 87.886, 611 88.970 C 611 90.053, 611.900 92.542, 613 94.500 C 614.100 96.458, 615 99.424, 615 101.089 C 615 102.854, 615.417 103.860, 616 103.500 C 616.565 103.151, 617 103.970, 617 105.382 C 617 106.757, 617.437 108.152, 617.971 108.482 C 618.505 108.812, 619.238 111.314, 619.600 114.041 C 619.962 116.768, 620.650 119, 621.129 119 C 621.608 119, 622 120.125, 622 121.500 C 622 122.875, 622.450 124, 623 124 C 623.550 124, 624 125.350, 624 127 C 624 128.650, 624.450 130, 625 130 C 625.550 130, 626 131.125, 626 132.500 C 626 133.875, 626.450 135, 627 135 C 627.550 135, 628 136.350, 628 138 C 628 139.650, 628.450 141, 629 141 C 629.550 141, 630 142.350, 630 144 C 630 145.650, 630.450 147, 631 147 C 631.550 147, 632 147.863, 632 148.918 C 632 153.755, 632.588 154, 644.178 154 C 656.910 154, 657.582 153.632, 658.578 146.122 C 658.952 143.305, 659.650 141, 660.129 141 C 660.608 141, 661 139.650, 661 138 C 661 136.350, 661.450 135, 662 135 C 662.550 135, 663 133.875, 663 132.500 C 663 131.125, 663.450 130, 664 130 C 664.550 130, 665 128.650, 665 127 C 665 125.350, 665.450 124, 666 124 C 666.550 124, 667 122.875, 667 121.500 C 667 120.125, 667.450 119, 668 119 C 668.550 119, 669.007 117.537, 669.015 115.750 C 669.027 113.284, 669.264 112.862, 670 114 C 670.721 115.116, 670.973 114.539, 670.985 111.750 C 670.993 109.688, 671.418 108, 671.928 108 C 672.438 108, 673.165 105.525, 673.543 102.500 C 673.921 99.475, 674.629 97, 675.115 97 C 675.602 97, 676 95.848, 676 94.441 C 676 92.990, 676.433 92.149, 677 92.500 C 677.605 92.874, 678 91.491, 678 89 C 678 86.509, 678.395 85.126, 679 85.500 C 679.567 85.851, 680 85.010, 680 83.559 C 680 82.152, 680.450 81, 681 81 C 681.550 81, 682 79.875, 682 78.500 C 682 77.125, 682.450 76, 683 76 C 683.550 76, 684 74.650, 684 73 C 684 71.350, 684.418 70, 684.928 70 C 685.438 70, 686.165 67.525, 686.543 64.500 C 686.921 61.475, 687.629 59, 688.115 59 C 688.602 59, 689 57.875, 689 56.500 C 689 55.125, 689.450 54, 690 54 C 690.550 54, 691 52.650, 691 51 C 691 49.350, 691.450 48, 692 48 C 692.550 48, 693 46.650, 693 45 C 693 43.350, 693.450 42, 694 42 C 694.550 42, 695 41.100, 695 40 C 695 38.900, 695.450 38, 696 38 C 696.660 38, 697 71.333, 697 136 L 697 234 711 234 L 725 234 725 121.500 L 725 9 704.500 9 C 686.944 9, 684 9.215, 684 10.500 C 684 11.325, 683.550 12, 683 12 C 682.450 12, 682 12.873, 682 13.941 C 682 15.009, 681.550 16.160, 681 16.500 C 680.450 16.840, 680 18.216, 680 19.559 C 680 20.902, 679.438 22.007, 678.750 22.015 C 677.917 22.026, 678 22.354, 679 23 C 680 23.646, 680.083 23.974, 679.250 23.985 C 678.563 23.993, 678 24.675, 678 25.500 C 678 26.325, 677.550 27, 677 27 C 676.450 27, 676 28.350, 676 30 C 676 31.650, 675.602 33, 675.115 33 C 674.629 33, 673.921 35.475, 673.543 38.500 C 673.165 41.525, 672.438 44, 671.928 44 C 671.418 44, 671 45.350, 671 47 C 671 48.650, 670.550 50, 670 50 C 669.450 50, 669 51.125, 669 52.500 C 669 53.875, 668.550 55, 668 55 C 667.450 55, 667 56.350, 667 58 C 667 59.650, 666.550 61, 666 61 C 665.450 61, 665 61.906, 665 63.014 C 665 64.121, 664.550 65.921, 664 67.014 C 663.450 68.106, 662.550 69.894, 662 70.986 C 661.450 72.079, 661 73.879, 661 74.986 C 661 76.094, 660.592 77, 660.094 77 C 659.595 77, 658.878 79.250, 658.500 82 C 658.122 84.750, 657.405 87, 656.906 87 C 656.408 87, 656 88.350, 656 90 C 656 91.650, 655.550 93, 655 93 C 654.450 93, 654 94.125, 654 95.500 C 654 96.875, 653.550 98, 653 98 C 652.450 98, 652 99.350, 652 101 C 652 102.650, 651.550 104, 651 104 C 650.450 104, 650 105.125, 650 106.500 C 650 107.875, 649.550 109, 649 109 C 648.450 109, 648 110.350, 648 112 C 648 113.650, 647.550 115, 647 115 C 646.450 115, 646 115.932, 646 117.071 C 646 118.211, 645.325 119.818, 644.500 120.643 C 643.167 121.976, 643 121.857, 643 119.571 C 643 118.157, 642.438 116.993, 641.750 116.985 C 640.917 116.974, 641 116.646, 642 116 C 643 115.354, 643.083 115.026, 642.250 115.015 C 641.563 115.007, 641 113.875, 641 112.500 C 641 111.125, 640.550 110, 640 110 C 639.450 110, 639 109.100, 639 108 C 639 106.900, 638.550 106, 638 106 C 637.450 106, 637 104.650, 637 103 C 637 101.350, 636.550 100, 636 100 C 635.450 100, 635 98.650, 635 97 C 635 95.350, 634.582 94, 634.072 94 C 633.562 94, 632.835 91.525, 632.457 88.500 C 632.079 85.475, 631.371 83, 630.885 83 C 630.398 83, 630 81.875, 630 80.500 C 630 79.125, 629.550 78, 629 78 C 628.450 78, 628 76.650, 628 75 C 628 73.350, 627.550 72, 627 72 C 626.450 72, 626 70.875, 626 69.500 C 626 68.125, 625.550 67, 625 67 C 624.450 67, 624 65.650, 624 64 C 624 62.350, 623.550 61, 623 61 C 622.450 61, 622 59.650, 622 58 C 622 56.350, 621.601 55, 621.114 55 C 620.308 55, 618.421 46.534, 618.829 44.750 C 618.923 44.338, 618.550 44, 618 44 C 617.450 44, 617 43.100, 617 42 C 617 40.900, 616.550 40, 616 40 C 615.450 40, 615 38.875, 615 37.500 C 615 36.125, 614.550 35, 614 35 C 613.450 35, 613 33.650, 613 32 C 613 30.275, 612.469 28.993, 611.750 28.985 C 610.917 28.974, 611 28.646, 612 28 C 613 27.354, 613.083 27.026, 612.250 27.015 C 611.563 27.007, 611 26.100, 611 25 C 611 23.900, 610.550 23, 610 23 C 609.450 23, 609 21.650, 609 20 C 609 18.350, 608.590 17, 608.088 17 C 607.586 17, 606.872 15.200, 606.500 13 L 605.824 9 585.412 9 L 565 9 565 121.500 M 1557 40.500 L 1557 65 1534.500 65 L 1512 65 1512 76 L 1512 87 1533.059 87 C 1546.844 87, 1553.905 86.655, 1553.500 86 C 1552.775 84.827, 1553.990 84.706, 1555.683 85.783 C 1556.564 86.343, 1556.946 101.145, 1557.183 143.935 C 1557.430 188.738, 1557.774 201.426, 1558.750 201.750 C 1559.438 201.979, 1560 203.479, 1560 205.083 C 1560 206.688, 1560.450 208, 1561 208 C 1561.550 208, 1562 209.026, 1562 210.279 C 1562 211.533, 1562.900 213.207, 1564 214 C 1565.100 214.793, 1566 216.002, 1566 216.687 C 1566 218.373, 1572.172 225, 1573.743 225 C 1574.434 225, 1575 225.410, 1575 225.912 C 1575 226.414, 1576.800 227.128, 1579 227.500 C 1581.200 227.872, 1583 228.586, 1583 229.088 C 1583 229.590, 1584.125 230, 1585.500 230 C 1586.875 230, 1588 230.450, 1588 231 C 1588 231.550, 1590.025 232, 1592.500 232 C 1594.975 232, 1597 232.450, 1597 233 C 1597 233.641, 1606.167 234, 1622.500 234 L 1648 234 1648 223 L 1648 212 1626.500 212 C 1612.833 212, 1605 211.636, 1605 211 C 1605 210.450, 1603.495 210, 1601.655 210 C 1599.580 210, 1597.623 209.241, 1596.500 208 C 1595.505 206.900, 1594.278 206, 1593.774 206 C 1592.515 206, 1590 203.382, 1590 202.071 C 1590 201.482, 1589.550 201, 1589 201 C 1588.450 201, 1588 200.100, 1588 199 C 1588 197.900, 1587.550 197, 1587 197 C 1586.450 197, 1586 195.425, 1586 193.500 C 1586 191.575, 1585.550 190, 1585 190 C 1584.346 190, 1584 172.167, 1584 138.500 L 1584 87 1616 87 L 1648 87 1648 76 L 1648 65 1616 65 L 1584 65 1584 40.500 L 1584 16 1570.500 16 L 1557 16 1557 40.500 M 91.250 38.496 C 90.563 39.277, 90 41.285, 90 42.958 C 90 44.631, 89.550 46, 89 46 C 88.450 46, 88 47.350, 88 49 C 88 50.650, 87.550 52, 87 52 C 86.450 52, 86 53.575, 86 55.500 C 86 57.425, 85.602 59, 85.116 59 C 84.631 59, 83.920 61.925, 83.537 65.500 C 83.154 69.075, 82.427 72, 81.920 72 C 81.414 72, 81 73.575, 81 75.500 C 81 77.425, 80.550 79, 80 79 C 79.450 79, 79 80.350, 79 82 C 79 83.650, 78.550 85, 78 85 C 77.450 85, 77 86.800, 77 89 C 77 91.200, 76.550 93, 76 93 C 75.450 93, 75 94.125, 75 95.500 C 75 96.875, 74.438 98.007, 73.750 98.015 C 72.917 98.026, 73 98.354, 74 99 C 75 99.646, 75.083 99.974, 74.250 99.985 C 73.531 99.993, 73 101.275, 73 103 C 73 104.650, 72.586 106, 72.080 106 C 71.573 106, 70.846 108.925, 70.463 112.500 C 70.080 116.075, 69.369 119, 68.884 119 C 68.398 119, 68 120.575, 68 122.500 C 68 124.425, 67.599 126, 67.109 126 C 66.620 126, 65.966 127.462, 65.657 129.250 C 64.355 136.780, 63.724 139, 62.887 139 C 62.399 139, 62 140.350, 62 142 C 62 143.650, 61.648 145, 61.218 145 C 60.788 145, 60.343 146.125, 60.229 147.500 L 60.022 150 92.011 150 L 124 150 124 147.559 C 124 146.216, 123.550 144.840, 123 144.500 C 122.450 144.160, 122 142.334, 122 140.441 C 122 138.548, 121.550 137, 121 137 C 120.450 137, 120 135.875, 120 134.500 C 120 133.125, 119.550 132, 119 132 C 118.450 132, 118 130.200, 118 128 C 118 125.800, 117.550 124, 117 124 C 116.450 124, 116 122.650, 116 121 C 116 119.350, 115.550 118, 115 118 C 114.450 118, 114 116.425, 114 114.500 C 114 112.575, 113.550 111, 113 111 C 112.450 111, 112 109.425, 112 107.500 C 112 105.575, 111.602 104, 111.116 104 C 110.631 104, 109.920 101.075, 109.537 97.500 C 109.154 93.925, 108.427 91, 107.920 91 C 107.414 91, 107 89.650, 107 88 C 107 86.275, 106.469 84.993, 105.750 84.985 C 104.917 84.974, 105 84.646, 106 84 C 107 83.354, 107.083 83.026, 106.250 83.015 C 105.563 83.007, 105 81.875, 105 80.500 C 105 79.125, 104.550 78, 104 78 C 103.450 78, 103 76.200, 103 74 C 103 71.800, 102.550 70, 102 70 C 101.450 70, 101 68.650, 101 67 C 101 65.350, 100.550 64, 100 64 C 99.450 64, 99 62.425, 99 60.500 C 99 58.575, 98.586 57, 98.080 57 C 97.573 57, 96.846 54.075, 96.463 50.500 C 96.080 46.925, 95.369 44, 94.884 44 C 94.398 44, 94 42.425, 94 40.500 C 94 36.760, 93.256 36.218, 91.250 38.496 M 821 62 C 821 62.550, 819.425 63, 817.500 63 C 815.575 63, 814 63.450, 814 64 C 814 64.550, 812.650 65, 811 65 C 809.350 65, 808 65.430, 808 65.955 C 808 66.480, 806.425 67.205, 804.500 67.566 C 802.575 67.927, 801 68.623, 801 69.111 C 801 69.600, 800.310 70, 799.467 70 C 798.623 70, 796.458 71.463, 794.654 73.250 C 792.850 75.037, 790.165 77.394, 788.687 78.487 C 787.209 79.580, 786 80.862, 786 81.336 C 786 81.810, 784.707 83.405, 783.127 84.881 C 781.547 86.357, 779.936 89.017, 779.546 90.791 C 779.156 92.566, 778.424 93.762, 777.919 93.450 C 777.413 93.137, 777 93.835, 777 95 C 777 96.165, 776.550 96.840, 776 96.500 C 775.417 96.139, 775 97.156, 775 98.941 C 775 100.623, 774.550 102, 774 102 C 773.450 102, 773 103.125, 773 104.500 C 773 105.875, 772.550 107, 772 107 C 771.450 107, 771 108.377, 771 110.059 C 771 111.844, 770.583 112.861, 770 112.500 C 769.397 112.128, 769 113.462, 769 115.858 C 769 118.142, 768.470 120.010, 767.754 120.249 C 766.799 120.567, 766.508 127.271, 766.508 149 C 766.508 170.729, 766.799 177.433, 767.754 177.751 C 768.501 178, 769 179.959, 769 182.642 C 769 185.371, 769.390 186.877, 770 186.500 C 770.585 186.138, 771 187.176, 771 189 C 771 190.824, 771.415 191.862, 772 191.500 C 772.583 191.139, 773 192.156, 773 193.941 C 773 195.623, 773.450 197, 774 197 C 774.550 197, 775 198.125, 775 199.500 C 775 200.875, 775.450 202, 776 202 C 776.550 202, 777 202.675, 777 203.500 C 777 204.325, 777.414 205, 777.921 205 C 778.427 205, 779.152 206.417, 779.533 208.150 C 779.913 209.882, 781.974 213.014, 784.112 215.110 C 786.251 217.206, 788 219.196, 788 219.532 C 788 220.328, 790.676 223, 791.474 223 C 791.813 223, 793.216 224.125, 794.591 225.500 C 795.966 226.875, 797.970 228, 799.045 228 C 800.120 228, 801 228.450, 801 229 C 801 229.550, 801.900 230, 803 230 C 804.100 230, 805 230.450, 805 231 C 805 231.550, 805.675 232, 806.500 232 C 807.325 232, 808 232.450, 808 233 C 808 233.550, 809.350 234, 811 234 C 812.650 234, 814 234.450, 814 235 C 814 235.550, 815.575 236, 817.500 236 C 819.425 236, 821 236.450, 821 237 C 821 237.630, 827.686 238, 839.059 238 C 850.844 238, 856.903 237.653, 856.500 237 C 856.139 236.417, 857.156 236, 858.941 236 C 860.623 236, 862 235.550, 862 235 C 862 234.450, 863.350 234, 865 234 C 866.650 234, 868 233.550, 868 233 C 868 232.450, 869.462 231.993, 871.250 231.985 C 873.716 231.973, 874.138 231.736, 873 231 C 871.755 230.195, 871.840 230.023, 873.500 229.984 C 874.600 229.958, 876.374 229.276, 877.441 228.468 C 878.509 227.661, 880.223 227, 881.250 227 C 882.277 227, 882.840 226.550, 882.500 226 C 882.160 225.450, 882.484 225, 883.220 225 C 883.956 225, 885.220 224.035, 886.029 222.855 C 886.838 221.675, 888.962 219.215, 890.750 217.388 C 892.538 215.561, 894 213.701, 894 213.254 C 894 212.807, 894.900 211.793, 896 211 C 897.100 210.207, 898 208.758, 898 207.779 C 898 206.801, 898.400 206, 898.889 206 C 899.377 206, 900.073 204.425, 900.434 202.500 C 900.795 200.575, 901.520 199, 902.045 199 C 902.570 199, 903 197.623, 903 195.941 C 903 194.156, 903.417 193.139, 904 193.500 C 904.559 193.845, 905 193.077, 905 191.759 C 905 190.462, 905.428 188.972, 905.952 188.448 C 906.476 187.924, 907.018 185.809, 907.156 183.748 C 907.295 181.687, 907.767 180, 908.204 180 C 908.642 180, 909 177.750, 909 175 C 909 172.250, 909.450 170, 910 170 C 910.634 170, 911 162.520, 911 149.559 C 911 137.010, 910.614 128.879, 910 128.500 C 909.450 128.160, 909 125.659, 909 122.941 C 909 120.223, 908.550 118, 908 118 C 907.450 118, 907 116.425, 907 114.500 C 907 112.375, 906.509 110.994, 905.750 110.985 C 904.917 110.974, 905 110.646, 906 110 C 907 109.354, 907.083 109.026, 906.250 109.015 C 905.563 109.007, 905 108.100, 905 107 C 905 105.900, 904.550 105, 904 105 C 903.450 105, 903 103.875, 903 102.500 C 903 101.125, 902.600 100, 902.111 100 C 901.623 100, 900.927 98.425, 900.566 96.500 C 900.205 94.575, 899.480 93, 898.955 93 C 898.430 93, 898 92.281, 898 91.401 C 898 90.522, 896.602 88.497, 894.894 86.901 C 893.186 85.306, 892.355 84, 893.047 84 C 893.740 84, 893.225 83.108, 891.903 82.019 C 887.998 78.798, 887.570 78.370, 886.029 76.134 C 885.220 74.960, 883.857 74, 883 74 C 882.143 74, 880.793 73.100, 880 72 C 879.207 70.900, 877.758 70, 876.779 70 C 875.801 70, 875 69.570, 875 69.045 C 875 68.520, 873.425 67.795, 871.500 67.434 C 869.575 67.073, 868 66.377, 868 65.889 C 868 65.400, 866.650 65, 865 65 C 863.350 65, 862 64.550, 862 64 C 862 63.450, 860.425 63, 858.500 63 C 856.575 63, 855 62.550, 855 62 C 855 61.373, 848.667 61, 838 61 C 827.333 61, 821 61.373, 821 62 M 993 62 C 993 62.550, 991.875 63, 990.500 63 C 989.125 63, 988 63.450, 988 64 C 988 64.550, 987.325 65, 986.500 65 C 985.675 65, 985 65.450, 985 66 C 985 66.550, 984.394 67, 983.653 67 C 981.904 67, 978 70.393, 978 71.913 C 978 73.081, 973.593 78, 972.545 78 C 972.245 78, 972 75.075, 972 71.500 L 972 65 960 65 L 948 65 948 149.500 L 948 234 960 234 L 972 234 972 205.083 C 972 182.886, 972.290 176.049, 973.250 175.662 C 974.151 175.299, 974.168 175.136, 973.309 175.079 C 971.749 174.976, 971.420 129, 972.980 129 C 973.541 129, 974 128.073, 974 126.941 C 974 125.809, 973.550 125.160, 973 125.500 C 972.450 125.840, 972 125.641, 972 125.059 C 972 124.477, 972.450 124, 973 124 C 973.606 124, 974 119.667, 974 113 C 974 106.333, 974.394 102, 975 102 C 975.550 102, 976 100.200, 976 98 C 976 95.800, 976.450 94, 977 94 C 977.550 94, 978 93.518, 978 92.929 C 978 92.339, 978.563 91.269, 979.250 90.551 C 979.938 89.833, 981.162 88.290, 981.971 87.123 C 982.780 85.955, 984.242 85, 985.221 85 C 986.199 85, 987 84.550, 987 84 C 987 83.450, 989.475 83, 992.500 83 C 995.525 83, 998 83.450, 998 84 C 998 84.550, 998.900 85, 1000 85 C 1001.100 85, 1002 85.450, 1002 86 C 1002 86.550, 1002.707 87, 1003.571 87 C 1006.190 87, 1007.988 89.635, 1008.647 94.439 C 1008.991 96.948, 1009.629 99, 1010.065 99 C 1011.512 99, 1012.099 116.906, 1012.583 175.750 L 1013.062 234 1024.999 234 L 1036.937 234 1037.421 177.250 C 1037.927 117.905, 1038.514 101, 1040.069 101 C 1040.581 101, 1041 99.425, 1041 97.500 C 1041 95.575, 1041.450 94, 1042 94 C 1042.550 94, 1043 93.530, 1043 92.955 C 1043 92.380, 1044.125 90.784, 1045.500 89.409 C 1046.875 88.034, 1048 86.480, 1048 85.955 C 1048 85.430, 1049.350 85, 1051 85 C 1052.650 85, 1054 84.550, 1054 84 C 1054 83.450, 1056.250 83, 1059 83 C 1061.750 83, 1064 83.450, 1064 84 C 1064 84.550, 1064.920 85, 1066.045 85 C 1068.404 85, 1073 89.211, 1073 91.371 C 1073 92.175, 1073.479 92.993, 1074.065 93.188 C 1076.160 93.887, 1077.296 120.279, 1077.662 176.750 L 1078.032 234 1090.088 234 L 1102.143 234 1101.822 163.463 C 1101.578 110.096, 1101.209 92.746, 1100.304 92.187 C 1099.646 91.781, 1098.995 89.548, 1098.858 87.224 C 1098.721 84.901, 1098.247 83, 1097.804 83 C 1097.362 83, 1097 82.325, 1097 81.500 C 1097 80.675, 1096.550 80, 1096 80 C 1095.450 80, 1095 79.100, 1095 78 C 1095 76.900, 1094.550 76, 1094 76 C 1093.450 76, 1093 75.307, 1093 74.461 C 1093 72.432, 1085.599 65, 1083.578 65 C 1082.710 65, 1082 64.550, 1082 64 C 1082 63.450, 1080.875 63, 1079.500 63 C 1078.125 63, 1077 62.550, 1077 62 C 1077 61.391, 1072.480 61, 1065.441 61 C 1057.990 61, 1054.102 61.355, 1054.500 62 C 1054.851 62.567, 1054.010 63, 1052.559 63 C 1051.152 63, 1050 63.450, 1050 64 C 1050 64.550, 1049.531 65, 1048.958 65 C 1047.806 65, 1046.793 65.782, 1040.968 71.172 C 1038.786 73.191, 1037 75.355, 1037 75.981 C 1037 76.606, 1036.550 76.840, 1036 76.500 C 1035.450 76.160, 1035 76.809, 1035 77.941 C 1035 79.105, 1034.348 80, 1033.500 80 C 1032.667 80, 1032 79.111, 1032 78 C 1032 76.900, 1031.580 76, 1031.067 76 C 1030.554 76, 1029.866 75.153, 1029.538 74.119 C 1028.695 71.463, 1026.036 68.670, 1022.250 66.463 C 1020.462 65.421, 1019 64.216, 1019 63.784 C 1019 63.353, 1017.650 63, 1016 63 C 1014.350 63, 1013 62.550, 1013 62 C 1013 61.400, 1009 61, 1003 61 C 997 61, 993 61.400, 993 62 M 1200 62 C 1200 62.550, 1198.425 63, 1196.500 63 C 1194.575 63, 1193 63.450, 1193 64 C 1193 64.550, 1191.623 65, 1189.941 65 C 1188.259 65, 1187.124 65.392, 1187.420 65.871 C 1187.716 66.350, 1186.065 66.996, 1183.751 67.307 C 1181.437 67.617, 1179.383 68.350, 1179.188 68.935 C 1178.993 69.521, 1178.308 70.001, 1177.667 70.001 C 1174.555 70.004, 1155 88.085, 1155 90.959 C 1155 92.007, 1154.100 93.151, 1153 93.500 C 1151.900 93.849, 1151 95.004, 1151 96.067 C 1151 97.130, 1150.550 98, 1150 98 C 1149.450 98, 1149 98.900, 1149 100 C 1149 101.100, 1148.550 102, 1148 102 C 1147.450 102, 1147 102.900, 1147 104 C 1147 105.100, 1146.550 106, 1146 106 C 1145.450 106, 1145 106.900, 1145 108 C 1145 109.100, 1144.594 110, 1144.098 110 C 1143.602 110, 1142.883 112.701, 1142.500 116.002 C 1142.117 119.303, 1141.397 122.254, 1140.902 122.561 C 1140.406 122.867, 1140 125.566, 1140 128.559 C 1140 131.552, 1139.550 134, 1139 134 C 1138.378 134, 1138 139.667, 1138 149 C 1138 158.333, 1138.378 164, 1139 164 C 1139.556 164, 1140 166.667, 1140 170 C 1140 173.300, 1140.386 176, 1140.858 176 C 1141.329 176, 1142.009 178.813, 1142.367 182.250 C 1142.726 185.688, 1143.465 188.650, 1144.010 188.833 C 1144.554 189.017, 1145 190.029, 1145 191.083 C 1145 192.138, 1145.450 193, 1146 193 C 1146.550 193, 1147 193.900, 1147 195 C 1147 196.100, 1147.450 197, 1148 197 C 1148.550 197, 1149 197.900, 1149 199 C 1149 200.100, 1149.450 201, 1150 201 C 1150.550 201, 1151 201.576, 1151 202.279 C 1151 202.983, 1151.900 204.207, 1153 205 C 1154.100 205.793, 1155 207.226, 1155 208.185 C 1155 209.145, 1156.134 210.958, 1157.521 212.215 C 1158.907 213.472, 1162.045 216.412, 1164.494 218.750 C 1166.943 221.088, 1169.310 223, 1169.753 223 C 1170.196 223, 1171.188 223.874, 1171.958 224.942 C 1172.728 226.011, 1175.137 227.185, 1177.310 227.552 C 1180.104 228.024, 1180.857 228.476, 1179.881 229.095 C 1178.897 229.718, 1179.290 229.974, 1181.250 229.985 C 1182.763 229.993, 1184 230.450, 1184 231 C 1184 231.550, 1184.900 232, 1186 232 C 1187.100 232, 1188 232.450, 1188 233 C 1188 233.550, 1189.350 234, 1191 234 C 1192.650 234, 1194 234.450, 1194 235 C 1194 235.550, 1196.025 236, 1198.500 236 C 1200.975 236, 1203 236.450, 1203 237 C 1203 237.632, 1210.167 238, 1222.500 238 C 1234.833 238, 1242 237.632, 1242 237 C 1242 236.450, 1244.025 236, 1246.500 236 C 1248.975 236, 1251 235.550, 1251 235 C 1251 234.450, 1252.800 234, 1255 234 C 1257.200 234, 1259 233.550, 1259 233 C 1259 232.450, 1260.125 232, 1261.500 232 C 1262.875 232, 1264 231.550, 1264 231 C 1264 230.450, 1265.350 230, 1267 230 C 1268.650 230, 1270 229.632, 1270 229.182 C 1270 228.733, 1272.362 227.945, 1275.250 227.432 L 1280.500 226.500 1280.778 212.750 C 1281.046 199.511, 1280.981 199, 1279.028 199 C 1277.913 199, 1277 199.430, 1277 199.955 C 1277 200.480, 1275.425 201.205, 1273.500 201.566 C 1271.575 201.927, 1270 202.623, 1270 203.111 C 1270 203.600, 1269.127 204, 1268.059 204 C 1266.991 204, 1265.840 204.450, 1265.500 205 C 1265.160 205.550, 1264.009 206, 1262.941 206 C 1261.873 206, 1261 206.450, 1261 207 C 1261 207.550, 1259.650 208, 1258 208 C 1256.350 208, 1255 208.450, 1255 209 C 1255 209.550, 1253.650 210, 1252 210 C 1250.350 210, 1249 210.450, 1249 211 C 1249 211.550, 1247.463 212, 1245.583 212 C 1243.704 212, 1241.988 212.537, 1241.769 213.192 C 1241.207 214.880, 1205.480 214.880, 1203.792 213.192 C 1203.137 212.537, 1201.565 212, 1200.300 212 C 1199.035 212, 1198 211.550, 1198 211 C 1198 210.450, 1197.100 210, 1196 210 C 1194.900 210, 1194 209.550, 1194 209 C 1194 208.450, 1193.321 208, 1192.491 208 C 1191.661 208, 1189.569 206.650, 1187.843 205 C 1186.116 203.350, 1184.088 202, 1183.336 202 C 1182.583 202, 1181.217 200.425, 1180.299 198.500 C 1179.381 196.575, 1178.263 195, 1177.815 195 C 1177.367 195, 1177 194.325, 1177 193.500 C 1177 192.675, 1176.550 192, 1176 192 C 1175.450 192, 1175 191.325, 1175 190.500 C 1175 189.675, 1174.550 189, 1174 189 C 1173.450 189, 1173 187.875, 1173 186.500 C 1173 185.125, 1172.550 184, 1172 184 C 1171.450 184, 1171 182.688, 1171 181.083 C 1171 179.479, 1170.546 178.015, 1169.990 177.830 C 1169.405 177.635, 1168.761 171.305, 1168.457 162.747 L 1167.934 148 1228.467 148 L 1289 148 1289 136 C 1289 128.667, 1288.611 124, 1288 124 C 1287.450 124, 1287 121.975, 1287 119.500 C 1287 117.025, 1286.550 115, 1286 115 C 1285.450 115, 1285 113.650, 1285 112 C 1285 110.350, 1284.646 109, 1284.213 109 C 1283.780 109, 1283.350 107.994, 1283.257 106.765 C 1283.165 105.535, 1282.619 104.373, 1282.044 104.181 C 1281.470 103.990, 1281 102.971, 1281 101.917 C 1281 100.862, 1280.550 100, 1280 100 C 1279.450 100, 1279 99.100, 1279 98 C 1279 96.900, 1278.599 96, 1278.108 96 C 1277.618 96, 1276.934 94.875, 1276.589 93.500 C 1276.244 92.125, 1275.520 91, 1274.981 91 C 1274.441 91, 1274 90.313, 1274 89.474 C 1274 87.686, 1265.475 78.859, 1264.596 79.737 C 1264.268 80.065, 1264 79.358, 1264 78.167 C 1264 76.975, 1263.506 76, 1262.901 76 C 1262.297 76, 1260.541 74.650, 1259 73 C 1257.459 71.350, 1255.478 70, 1254.599 70 C 1253.719 70, 1253 69.600, 1253 69.111 C 1253 68.623, 1251.425 67.927, 1249.500 67.566 C 1247.575 67.205, 1246 66.480, 1246 65.955 C 1246 65.430, 1244.875 65, 1243.500 65 C 1242.125 65, 1241 64.550, 1241 64 C 1241 63.450, 1239.398 63, 1237.441 63 C 1235.323 63, 1234.132 62.595, 1234.500 62 C 1234.903 61.348, 1229.010 61, 1217.559 61 C 1206.520 61, 1200 61.371, 1200 62 M 1398 61.959 C 1398 62.532, 1396.650 63, 1395 63 C 1393.350 63, 1392 63.450, 1392 64 C 1392 64.550, 1390.875 65, 1389.500 65 C 1388.125 65, 1387 65.450, 1387 66 C 1387 66.550, 1386.132 67, 1385.071 67 C 1384.011 67, 1382.468 67.675, 1381.643 68.500 C 1380.818 69.325, 1379.869 70, 1379.534 70 C 1378.249 70, 1367 82.150, 1367 83.537 C 1367 84.342, 1366.550 85, 1366 85 C 1365.450 85, 1365 85.675, 1365 86.500 C 1365 87.325, 1364.550 88, 1364 88 C 1363.391 88, 1363 83.500, 1363 76.500 L 1363 65 1349 65 L 1335 65 1335 149.500 L 1335 234 1349 234 L 1363 234 1363 177.559 C 1363 141.010, 1363.352 120.900, 1364 120.500 C 1364.550 120.160, 1365 118.334, 1365 116.441 C 1365 114.548, 1365.450 113, 1366 113 C 1366.550 113, 1367 111.875, 1367 110.500 C 1367 109.125, 1367.400 108, 1367.889 108 C 1368.377 108, 1369.075 106.412, 1369.439 104.472 C 1369.803 102.532, 1370.528 101.208, 1371.051 101.531 C 1371.573 101.854, 1372 101.372, 1372 100.460 C 1372 99.029, 1374.183 96.625, 1379.555 92.140 C 1381.964 90.128, 1388.036 87, 1389.530 87 C 1390.339 87, 1391 86.550, 1391 86 C 1391 85.389, 1395.667 85, 1403 85 C 1410.333 85, 1415 85.389, 1415 86 C 1415 86.550, 1416.152 87, 1417.559 87 C 1419.010 87, 1419.851 87.433, 1419.500 88 C 1419.160 88.550, 1419.778 89, 1420.874 89 C 1421.987 89, 1423.145 89.882, 1423.500 91 C 1423.849 92.100, 1424.486 93, 1424.914 93 C 1426.437 93, 1430 96.760, 1430 98.367 C 1430 99.265, 1430.450 100, 1431 100 C 1431.550 100, 1432 100.900, 1432 102 C 1432 103.100, 1432.450 104, 1433 104 C 1433.550 104, 1434 105.313, 1434 106.917 C 1434 108.521, 1434.559 110.020, 1435.242 110.247 C 1436.214 110.571, 1436.486 124.099, 1436.492 172.355 L 1436.500 234.049 1450.500 233.774 L 1464.500 233.500 1464.617 228 L 1464.735 222.500 1464.060 228 C 1463.688 231.025, 1463.185 202.937, 1462.942 165.583 C 1462.596 112.455, 1462.228 97.575, 1461.250 97.250 C 1460.563 97.021, 1460 95.521, 1460 93.917 C 1460 92.313, 1459.550 91, 1459 91 C 1458.450 91, 1458 90.100, 1458 89 C 1458 87.900, 1457.550 87, 1457 87 C 1456.450 87, 1456 86.100, 1456 85 C 1456 83.900, 1455.550 83, 1455 83 C 1454.450 83, 1454 82.424, 1454 81.721 C 1454 81.017, 1453.117 79.805, 1452.037 79.027 C 1450.957 78.248, 1449.796 76.349, 1449.457 74.806 C 1449.118 73.263, 1448.202 72, 1447.421 72 C 1446.639 72, 1446 71.550, 1446 71 C 1446 70.450, 1445.518 70, 1444.929 70 C 1444.339 70, 1443.182 69.325, 1442.357 68.500 C 1441.532 67.675, 1439.989 67, 1438.929 67 C 1437.868 67, 1437 66.550, 1437 66 C 1437 65.450, 1436.325 65, 1435.500 65 C 1434.675 65, 1434 64.550, 1434 64 C 1434 63.450, 1432.650 63, 1431 63 C 1429.350 63, 1428 62.592, 1428 62.094 C 1428 61.596, 1421.250 61.127, 1413 61.053 C 1403.188 60.965, 1398 61.278, 1398 61.959 M 834 84 C 834 84.550, 831.750 85, 829 85 C 826.250 85, 824 85.450, 824 86 C 824 86.550, 823.100 87, 822 87 C 820.900 87, 820 87.450, 820 88 C 820 88.550, 819.325 89, 818.500 89 C 817.675 89, 817 89.450, 817 90 C 817 90.550, 816.531 91, 815.958 91 C 813.625 91, 807 97.690, 807 100.045 C 807 101.120, 806.550 102, 806 102 C 805.450 102, 805 102.675, 805 103.500 C 805 104.325, 804.550 105, 804 105 C 803.450 105, 803 105.900, 803 107 C 803 108.100, 802.550 109, 802 109 C 801.450 109, 801 110.125, 801 111.500 C 801 112.875, 800.550 114, 800 114 C 799.450 114, 799 115.350, 799 117 C 799 118.650, 798.550 120, 798 120 C 797.444 120, 797 122.667, 797 126 C 797 129.333, 796.556 132, 796 132 C 795.373 132, 795 138.333, 795 149 C 795 159.667, 795.373 166, 796 166 C 796.556 166, 797 168.667, 797 172 C 797 175.333, 797.444 178, 798 178 C 798.550 178, 799 179.260, 799 180.801 C 799 183.839, 801.039 188.980, 802.250 188.992 C 802.663 188.996, 803 189.900, 803 191 C 803 192.100, 803.450 193, 804 193 C 804.550 193, 805 193.900, 805 195 C 805 196.100, 805.450 197, 806 197 C 806.550 197, 807 197.720, 807 198.599 C 807 200.603, 816.483 210, 818.505 210 C 819.327 210, 820 210.450, 820 211 C 820 211.550, 820.927 212, 822.059 212 C 823.191 212, 823.879 212.386, 823.587 212.859 C 823.296 213.331, 826.602 214.013, 830.935 214.374 C 839.679 215.103, 853 214.187, 853 212.856 C 853 212.385, 853.900 212, 855 212 C 856.100 212, 857 211.550, 857 211 C 857 210.450, 857.462 210, 858.026 210 C 858.591 210, 860.999 208.088, 863.377 205.750 C 865.755 203.412, 868.669 200.838, 869.851 200.029 C 871.033 199.220, 872 197.758, 872 196.779 C 872 195.801, 872.422 195, 872.939 195 C 873.455 195, 874.180 192.980, 874.551 190.510 C 874.921 188.041, 875.624 186.267, 876.112 186.569 C 876.600 186.871, 877 185.516, 877 183.559 C 877 181.602, 877.450 180, 878 180 C 878.550 180, 879 178.200, 879 176 C 879 173.800, 879.450 172, 880 172 C 880.637 172, 881 163.833, 881 149.500 C 881 135.167, 880.637 127, 880 127 C 879.450 127, 879 125.200, 879 123 C 879 120.800, 878.550 119, 878 119 C 877.450 119, 877 117.650, 877 116 C 877 114.350, 876.609 113, 876.132 113 C 875.654 113, 875.008 111.097, 874.696 108.772 C 874.384 106.446, 873.650 104.383, 873.065 104.188 C 872.479 103.993, 872 103.161, 872 102.338 C 872 101.019, 870.096 99.007, 861.286 91.010 C 860.068 89.904, 858.605 89, 858.036 89 C 857.466 89, 857 88.660, 857 88.243 C 857 87.250, 849.727 85, 846.516 85 C 845.132 85, 844 84.550, 844 84 C 844 83.450, 841.750 83, 839 83 C 836.250 83, 834 83.450, 834 84 M 1211 84 C 1211 84.550, 1208.750 85, 1206 85 C 1203.250 85, 1201 85.450, 1201 86 C 1201 86.550, 1200.100 87, 1199 87 C 1197.900 87, 1197 87.450, 1197 88 C 1197 88.550, 1196.325 89, 1195.500 89 C 1194.675 89, 1194 89.450, 1194 90 C 1194 90.550, 1193.306 91, 1192.458 91 C 1191.015 91, 1190.005 91.639, 1186.537 94.750 C 1185.770 95.438, 1184.691 96, 1184.139 96 C 1183.587 96, 1182.856 96.877, 1182.516 97.949 C 1182.176 99.021, 1180.683 101.226, 1179.199 102.849 C 1173.918 108.623, 1173 110.053, 1173 112.511 C 1173 113.880, 1172.550 115, 1172 115 C 1171.450 115, 1171 116.125, 1171 117.500 C 1171 118.875, 1170.550 120, 1170 120 C 1169.450 120, 1169 121.807, 1169 124.017 L 1169 128.033 1215 127.980 L 1261 127.927 1261 123.963 C 1261 121.784, 1260.550 120, 1260 120 C 1259.450 120, 1259 118.425, 1259 116.500 C 1259 114.575, 1258.550 113, 1258 113 C 1257.450 113, 1257 112.100, 1257 111 C 1257 109.900, 1256.550 109, 1256 109 C 1255.450 109, 1255 108.325, 1255 107.500 C 1255 106.675, 1254.550 106, 1254 106 C 1253.450 106, 1253 105.305, 1253 104.455 C 1253 103.605, 1251.875 101.784, 1250.500 100.409 C 1249.125 99.034, 1248 97.038, 1248 95.974 C 1248 94.693, 1247.069 93.808, 1245.250 93.359 C 1243.737 92.986, 1241.772 91.852, 1240.883 90.840 C 1239.993 89.828, 1238.531 89, 1237.633 89 C 1236.735 89, 1236 88.550, 1236 88 C 1236 87.450, 1234.763 86.993, 1233.250 86.985 C 1231.107 86.973, 1230.831 86.755, 1232 86 C 1233.065 85.312, 1231.831 85.026, 1227.750 85.015 C 1224.588 85.007, 1222 84.550, 1222 84 C 1222 83.450, 1219.525 83, 1216.500 83 C 1213.475 83, 1211 83.450, 1211 84 M 1464.310 130.500 C 1464.315 133.800, 1464.502 135.029, 1464.725 133.232 C 1464.947 131.435, 1464.943 128.735, 1464.715 127.232 C 1464.486 125.729, 1464.304 127.200, 1464.310 130.500 M 1464.343 146.500 C 1464.346 150.900, 1464.522 152.576, 1464.733 150.224 C 1464.945 147.872, 1464.942 144.272, 1464.727 142.224 C 1464.512 140.176, 1464.339 142.100, 1464.343 146.500 M 1464.079 157.583 C 1464.127 158.748, 1464.364 158.985, 1464.683 158.188 C 1464.972 157.466, 1464.936 156.603, 1464.604 156.271 C 1464.272 155.939, 1464.036 156.529, 1464.079 157.583 M 1464.079 178.583 C 1464.127 179.748, 1464.364 179.985, 1464.683 179.188 C 1464.972 178.466, 1464.936 177.603, 1464.604 177.271 C 1464.272 176.939, 1464.036 177.529, 1464.079 178.583 M 1464.355 208.500 C 1464.352 213.450, 1464.521 215.601, 1464.731 213.280 C 1464.940 210.959, 1464.943 206.909, 1464.736 204.280 C 1464.530 201.651, 1464.358 203.550, 1464.355 208.500" stroke="none" fill="#000000" fill-rule="evenodd"/>
</svg>